<svg width="32" height="32" viewBox="0 0 32 32" fill="none" xmlns="http://www.w3.org/2000/svg">
<path d="M16 32C24.8366 32 32 24.8366 32 16C32 7.16344 24.8366 0 16 0C7.16344 0 0 7.16344 0 16C0 24.8366 7.16344 32 16 32Z" fill="#F49B33"/>
<path d="M21.8933 12.7325C21.7369 10.726 20.0157 10.0234 17.8373 9.7933L17.8864 7.01362L16.1959 6.98601L16.1468 9.69205C15.702 9.68285 15.2479 9.68592 14.7938 9.68592L14.8429 6.96147L13.1524 6.93079L13.1033 9.71046C12.7382 9.71046 12.3762 9.71353 12.0264 9.70432V9.69512L9.6916 9.65524L9.66092 11.4623C9.66092 11.4623 10.9127 11.4593 10.8912 11.4838C11.5754 11.4961 11.7932 11.898 11.8515 12.2416L11.7963 15.4079C11.8423 15.4079 11.9037 15.4109 11.9742 15.4232L11.7963 15.4201L11.7196 19.8566C11.6859 20.0713 11.5539 20.4119 11.0722 20.4058C11.0937 20.4242 9.84194 20.3843 9.84194 20.3843L9.4707 22.3969L11.6736 22.4368C12.0816 22.446 12.4866 22.4583 12.8824 22.4675L12.8333 25.2779L14.5238 25.3055L14.5729 22.5258C15.0362 22.5411 15.4872 22.5534 15.9259 22.5626L15.8768 25.33L17.5673 25.3576L17.6164 22.5534C20.4636 22.4399 22.4671 21.7588 22.7616 19.0896C22.9978 16.9419 22.0038 15.9632 20.3961 15.549C21.384 15.0704 22.013 14.2021 21.8933 12.7325ZM19.4205 18.703C19.3867 20.8046 15.7909 20.5009 14.6435 20.4825L14.711 16.7578C15.8584 16.7762 19.4603 16.5093 19.4205 18.703ZM18.7271 13.432C18.6933 15.3434 15.6958 15.0673 14.7417 15.052L14.7999 11.674C15.7541 11.6894 18.7608 11.4378 18.7271 13.432Z" fill="white"/>
</svg>
