<svg width="135" height="32" viewBox="0 0 135 32" fill="none" xmlns="http://www.w3.org/2000/svg">
<rect width="135" height="32" fill="#000510"/>
<path d="M6.35254 7.76505C7.73015 6.06339 9.47673 4.66821 11.4718 3.67573C13.4669 2.68326 15.663 2.1171 17.9086 2.01632C20.1542 1.91553 22.396 2.28252 24.4792 3.09197C26.5624 3.90142 28.4375 5.13406 29.9752 6.70488L24.8431 11.3141C24.0014 10.4542 22.975 9.77947 21.8346 9.33638C20.6943 8.89329 19.4671 8.6924 18.2379 8.74757C17.0086 8.80274 15.8065 9.11265 14.7144 9.65593C13.6223 10.1992 12.6662 10.9629 11.9121 11.8944L6.35254 7.76505Z" fill="white"/>
<path d="M29.9999 24.6611C28.558 26.3131 26.7591 27.6459 24.7273 28.5675C22.6955 29.4891 20.4791 29.9776 18.2312 29.9992C15.9832 30.0209 13.757 29.5753 11.7063 28.6931C9.6555 27.8109 7.82893 26.513 6.35254 24.8892L11.658 20.4637C12.4662 21.3526 13.466 22.063 14.5886 22.5459C15.7112 23.0289 16.9298 23.2728 18.1603 23.261C19.3909 23.2491 20.6041 22.9817 21.7163 22.4772C22.8285 21.9727 23.8132 21.2432 24.6025 20.3389L29.9999 24.6611Z" fill="white"/>
<path d="M14.7822 16.2845L6.26061 22.9893L6.26061 9.57971L14.7822 16.2845Z" fill="#99E39E"/>
<path d="M10.5215 16.2845L1.99987 22.9893L1.99987 9.57971L10.5215 16.2845Z" fill="#99E39E"/>
<path d="M51.2963 23.9407C49.378 23.9407 47.718 23.5275 46.3161 22.7013C44.9328 21.8566 43.8629 20.6907 43.1067 19.2034C42.3689 17.6977 42 15.9626 42 13.9979C42 12.0148 42.3689 10.2797 43.1067 8.79237C43.8629 7.28672 44.9328 6.11158 46.3161 5.26695C47.718 4.42232 49.378 4 51.2963 4C53.6019 4 55.4833 4.56921 56.9405 5.70763C58.3976 6.82768 59.3199 8.41596 59.7072 10.4725H56.0551C55.7969 9.38912 55.2712 8.53531 54.478 7.91102C53.6849 7.28672 52.6151 6.97458 51.2686 6.97458C50.0512 6.97458 48.9999 7.25918 48.1145 7.82839C47.2476 8.37924 46.5744 9.18715 46.0948 10.2521C45.6337 11.2987 45.4031 12.5473 45.4031 13.9979C45.4031 15.4484 45.6337 16.697 46.0948 17.7436C46.5744 18.7719 47.2476 19.5706 48.1145 20.1398C48.9999 20.6907 50.0512 20.9661 51.2686 20.9661C52.6151 20.9661 53.6849 20.6815 54.478 20.1123C55.2712 19.5247 55.7969 18.7168 56.0551 17.6886H59.7072C59.3383 19.6349 58.4161 21.1681 56.9405 22.2881C55.4833 23.3898 53.6019 23.9407 51.2963 23.9407Z" fill="white"/>
<path d="M62.5686 23.6102V9.72881H65.5291L65.8334 12.3178C66.1654 11.7119 66.5804 11.1977 67.0784 10.7754C67.5764 10.3347 68.1575 9.99506 68.8215 9.75636C69.504 9.51765 70.251 9.3983 71.0626 9.3983V12.8962H69.9005C69.3472 12.8962 68.8215 12.9696 68.3235 13.1165C67.8255 13.2451 67.392 13.4654 67.0231 13.7775C66.6726 14.0713 66.396 14.4845 66.1931 15.0169C65.9902 15.5311 65.8887 16.1829 65.8887 16.9725V23.6102H62.5686Z" fill="white"/>
<path d="M74.9764 29.6695L78.3795 22.0678H77.5495L71.9883 9.72881H75.6128L79.7629 19.1483L83.6917 9.72881H87.2055L78.4902 29.6695H74.9764Z" fill="white"/>
<path d="M89.3315 29.6695V9.72881H92.292L92.6516 11.7394C92.9468 11.3355 93.2972 10.959 93.703 10.6102C94.1272 10.2429 94.6345 9.94915 95.2247 9.72881C95.8334 9.50847 96.5251 9.3983 97.2998 9.3983C98.6094 9.3983 99.7622 9.71963 100.758 10.3623C101.773 11.0049 102.566 11.8771 103.138 12.9788C103.709 14.0621 103.995 15.3016 103.995 16.697C103.995 18.0925 103.7 19.3411 103.11 20.4428C102.538 21.5261 101.745 22.3799 100.731 23.0042C99.7345 23.6285 98.5909 23.9407 97.2998 23.9407C96.2484 23.9407 95.3262 23.7479 94.533 23.3623C93.7583 22.9583 93.1312 22.3891 92.6516 21.6547V29.6695H89.3315ZM96.6081 21.0763C97.3828 21.0763 98.0745 20.8927 98.6832 20.5254C99.2918 20.1582 99.7622 19.6441 100.094 18.9831C100.445 18.322 100.62 17.56 100.62 16.697C100.62 15.8157 100.445 15.0445 100.094 14.3835C99.7622 13.7225 99.2918 13.2083 98.6832 12.8411C98.0745 12.4739 97.3828 12.2903 96.6081 12.2903C95.815 12.2903 95.114 12.4739 94.5054 12.8411C93.9151 13.2083 93.4448 13.7225 93.0943 14.3835C92.7623 15.0445 92.5963 15.8065 92.5963 16.6695C92.5963 17.5508 92.7623 18.322 93.0943 18.9831C93.4448 19.6257 93.9151 20.1398 94.5054 20.5254C95.114 20.8927 95.815 21.0763 96.6081 21.0763Z" fill="white"/>
<path d="M111.996 30C110.687 30 109.534 29.8347 108.538 29.5042C107.56 29.1921 106.795 28.7055 106.242 28.0445C105.707 27.4018 105.439 26.5939 105.439 25.6208C105.439 25.0516 105.578 24.4915 105.854 23.9407C106.149 23.4082 106.583 22.9124 107.155 22.4534C107.745 21.976 108.492 21.5629 109.396 21.214L110.862 22.8114C109.977 23.1236 109.359 23.5 109.008 23.9407C108.658 24.3814 108.483 24.8312 108.483 25.2903C108.483 25.7677 108.63 26.1624 108.925 26.4746C109.239 26.8051 109.654 27.053 110.17 27.2182C110.705 27.3835 111.305 27.4661 111.969 27.4661C112.614 27.4661 113.177 27.3743 113.656 27.1907C114.136 27.0254 114.505 26.7867 114.763 26.4746C115.04 26.1624 115.178 25.786 115.178 25.3453C115.178 24.7945 114.984 24.3446 114.597 23.9958C114.21 23.6653 113.444 23.4633 112.301 23.3898C111.323 23.3164 110.465 23.2154 109.728 23.0869C108.99 22.94 108.354 22.7747 107.819 22.5911C107.302 22.4075 106.859 22.2055 106.491 21.9852C106.122 21.7465 105.817 21.5078 105.578 21.2691V20.6356L108.483 17.6059L110.945 18.4047L107.68 21.572L108.538 19.9746C108.722 20.1031 108.907 20.2225 109.091 20.3326C109.294 20.4428 109.543 20.5438 109.838 20.6356C110.152 20.709 110.558 20.7825 111.056 20.8559C111.554 20.9294 112.199 21.0028 112.992 21.0763C114.228 21.1681 115.234 21.3884 116.008 21.7373C116.783 22.0862 117.355 22.5544 117.724 23.1419C118.092 23.7295 118.277 24.4364 118.277 25.2627C118.277 26.0706 118.046 26.8326 117.585 27.5487C117.143 28.2648 116.46 28.8524 115.538 29.3114C114.616 29.7705 113.435 30 111.996 30ZM111.996 19.4513C110.834 19.4513 109.829 19.2309 108.981 18.7903C108.151 18.3312 107.514 17.7253 107.072 16.9725C106.629 16.2013 106.408 15.3566 106.408 14.4386C106.408 13.5021 106.629 12.6575 107.072 11.9047C107.514 11.1518 108.151 10.5459 108.981 10.0869C109.829 9.62782 110.834 9.3983 111.996 9.3983C113.158 9.3983 114.154 9.62782 114.984 10.0869C115.815 10.5459 116.451 11.1518 116.894 11.9047C117.336 12.6575 117.558 13.5021 117.558 14.4386C117.558 15.3566 117.336 16.2013 116.894 16.9725C116.451 17.7253 115.815 18.3312 114.984 18.7903C114.154 19.2309 113.158 19.4513 111.996 19.4513ZM111.996 16.8898C112.79 16.8898 113.426 16.6787 113.905 16.2564C114.385 15.834 114.625 15.2281 114.625 14.4386C114.625 13.649 114.385 13.0523 113.905 12.6483C113.426 12.226 112.79 12.0148 111.996 12.0148C111.203 12.0148 110.558 12.226 110.06 12.6483C109.562 13.0523 109.313 13.649 109.313 14.4386C109.313 15.2281 109.562 15.834 110.06 16.2564C110.558 16.6787 111.203 16.8898 111.996 16.8898ZM114.293 12.1525L113.656 9.72881H119.384V11.7945L114.293 12.1525Z" fill="#99E39E"/>
<path d="M128 23.9407C126.672 23.9407 125.473 23.6377 124.403 23.0318C123.352 22.4075 122.522 21.5537 121.913 20.4703C121.323 19.3686 121.028 18.1109 121.028 16.697C121.028 15.2465 121.332 13.9795 121.941 12.8962C122.55 11.7945 123.38 10.9407 124.431 10.3347C125.501 9.71045 126.7 9.3983 128.028 9.3983C129.356 9.3983 130.546 9.71045 131.597 10.3347C132.667 10.9407 133.497 11.7853 134.087 12.8686C134.696 13.952 135 15.2189 135 16.6695C135 18.1201 134.696 19.387 134.087 20.4703C133.478 21.5537 132.639 22.4075 131.569 23.0318C130.518 23.6377 129.328 23.9407 128 23.9407ZM128 21.1038C128.664 21.1038 129.264 20.9386 129.799 20.608C130.352 20.2775 130.795 19.7818 131.127 19.1208C131.459 18.4597 131.625 17.6427 131.625 16.6695C131.625 15.6963 131.459 14.8884 131.127 14.2458C130.813 13.5847 130.38 13.089 129.826 12.7585C129.291 12.428 128.692 12.2627 128.028 12.2627C127.382 12.2627 126.783 12.428 126.229 12.7585C125.676 13.089 125.233 13.5847 124.901 14.2458C124.569 14.8884 124.403 15.6963 124.403 16.6695C124.403 17.6427 124.569 18.4597 124.901 19.1208C125.233 19.7818 125.667 20.2775 126.202 20.608C126.755 20.9386 127.355 21.1038 128 21.1038Z" fill="#99E39E"/>
</svg>
