<svg width="32" height="32" viewBox="0 0 32 32" fill="none" xmlns="http://www.w3.org/2000/svg">
<path d="M16.0009 6.98266C19.0466 6.98266 21.5155 5.54671 21.5155 3.77539C21.5155 2.00406 19.0466 0.568115 16.0009 0.568115C12.9553 0.568115 10.4863 2.00406 10.4863 3.77539C10.4863 5.54671 12.9553 6.98266 16.0009 6.98266Z" fill="#E6007A"/>
<path d="M16.0009 31.1489C19.0466 31.1489 21.5155 29.713 21.5155 27.9417C21.5155 26.1703 19.0466 24.7344 16.0009 24.7344C12.9553 24.7344 10.4863 26.1703 10.4863 27.9417C10.4863 29.713 12.9553 31.1489 16.0009 31.1489Z" fill="#E6007A"/>
<path d="M8.31605 11.4228C9.83887 8.7853 9.82898 5.92871 8.29398 5.04245C6.75897 4.15618 4.28011 5.57586 2.7573 8.21337C1.23449 10.8509 1.24437 13.7075 2.77938 14.5937C4.31438 15.48 6.79324 14.0603 8.31605 11.4228Z" fill="#E6007A"/>
<path d="M29.241 23.5037C30.7638 20.8661 30.7548 18.01 29.2208 17.1244C27.6868 16.2387 25.2088 17.6589 23.686 20.2964C22.1632 22.9339 22.1722 25.79 23.7062 26.6757C25.2402 27.5613 27.7182 26.1412 29.241 23.5037Z" fill="#E6007A"/>
<path d="M8.29398 26.6748C9.82898 25.7886 9.83887 22.932 8.31605 20.2945C6.79324 17.657 4.31438 16.2373 2.77938 17.1236C1.24437 18.0098 1.23449 20.8664 2.7573 23.5039C4.28012 26.1414 6.75897 27.5611 8.29398 26.6748Z" fill="#E6007A"/>
<path d="M29.2228 14.5944C30.7567 13.7087 30.7658 10.8526 29.243 8.2151C27.7201 5.57759 25.2421 4.15743 23.7082 5.04309C22.1742 5.92876 22.1651 8.78486 23.688 11.4224C25.2108 14.0599 27.6888 15.48 29.2228 14.5944Z" fill="#E6007A"/>
</svg>
