<svg width="32" height="32" viewBox="0 0 32 32" fill="none" xmlns="http://www.w3.org/2000/svg">
<path d="M22.667 14.406C22.667 13.9451 22.667 13.7147 22.7363 13.5093C22.9379 12.9126 23.4694 12.681 24.0018 12.4385C24.6003 12.1659 24.8995 12.0296 25.1961 12.0056C25.5327 11.9784 25.8699 12.0509 26.1577 12.2124C26.5391 12.4265 26.8051 12.8332 27.0775 13.164C28.3354 14.6917 28.9642 15.4557 29.1943 16.2981C29.3801 16.9779 29.3801 17.6888 29.1943 18.3685C28.8587 19.5972 27.7983 20.6272 27.0134 21.5805C26.6119 22.0681 26.4111 22.312 26.1577 22.4543C25.8699 22.6157 25.5327 22.6883 25.1961 22.6611C24.8995 22.6371 24.6003 22.5008 24.0018 22.2281C23.4694 21.9856 22.9379 21.7541 22.7363 21.1573C22.667 20.952 22.667 20.7216 22.667 20.2607V14.406Z" stroke="#99E39E" stroke-width="2"/>
<path d="M9.33366 14.4061C9.33366 13.8259 9.31737 13.3043 8.84821 12.8963C8.67757 12.7479 8.45133 12.6448 7.99887 12.4387C7.40034 12.1661 7.10107 12.0298 6.80454 12.0058C5.91487 11.9339 5.43622 12.5411 4.92317 13.1642C3.66533 14.692 3.03641 15.4559 2.80627 16.2983C2.62057 16.9781 2.62057 17.6891 2.80627 18.3688C3.14193 19.5975 4.20235 20.6273 4.98727 21.5808C5.48205 22.1817 5.95469 22.73 6.80454 22.6613C7.10107 22.6373 7.40034 22.5009 7.99887 22.2284C8.45133 22.0223 8.67757 21.9192 8.84821 21.7708C9.31737 21.3628 9.33366 20.8413 9.33366 20.2609V14.4061Z" stroke="#99E39E" stroke-width="2"/>
<path d="M6.66699 12C6.66699 7.58172 10.8457 4 16.0003 4C21.155 4 25.3337 7.58172 25.3337 12" stroke="#99E39E" stroke-width="2" stroke-linecap="square" stroke-linejoin="round"/>
<path d="M25.333 22.6665V23.7332C25.333 26.0896 22.9451 27.9998 19.9997 27.9998H17.333" stroke="#99E39E" stroke-width="2" stroke-linecap="round" stroke-linejoin="round"/>
</svg>
