<svg width="32" height="32" viewBox="0 0 32 32" fill="none" xmlns="http://www.w3.org/2000/svg">
<path d="M16 32C24.8366 32 32 24.8366 32 16C32 7.16344 24.8366 0 16 0C7.16344 0 0 7.16344 0 16C0 24.8366 7.16344 32 16 32Z" fill="#627EEA"/>
<path d="M16.499 3.99756V12.868L23.996 16.2184L16.499 3.99756Z" fill="white" fill-opacity="0.6"/>
<path d="M16.4989 3.99756L9.00195 16.2184L16.4989 12.868V3.99756Z" fill="white"/>
<path d="M16.499 21.966V27.9933L24.0004 17.6139L16.499 21.966Z" fill="white" fill-opacity="0.6"/>
<path d="M16.4989 27.9933V21.966L9.00195 17.6139L16.4989 27.9933Z" fill="white"/>
<path d="M16.499 20.5709L23.996 16.2188L16.499 12.8683V20.5709Z" fill="white" fill-opacity="0.2"/>
<path d="M9.00195 16.2188L16.4989 20.5709V12.8683L9.00195 16.2188Z" fill="white" fill-opacity="0.6"/>
</svg>
