<svg width="20" height="20" viewBox="0 0 20 20" fill="none" xmlns="http://www.w3.org/2000/svg">
<path d="M12.9163 9.99992C12.9163 11.6108 11.6105 12.9166 9.99967 12.9166C8.38884 12.9166 7.08301 11.6108 7.08301 9.99992C7.08301 8.38909 8.38884 7.08325 9.99967 7.08325C11.6105 7.08325 12.9163 8.38909 12.9163 9.99992Z" stroke="#99E39E" stroke-width="1.25"/>
<path d="M17.5095 11.7471C17.9444 11.6298 18.1619 11.5712 18.2477 11.459C18.3337 11.3469 18.3337 11.1665 18.3337 10.8058V9.19435C18.3337 8.8336 18.3337 8.65318 18.2477 8.5411C18.1618 8.42893 17.9444 8.37026 17.5095 8.253C15.8842 7.81467 14.8669 6.11544 15.2864 4.50074C15.4017 4.05667 15.4594 3.83465 15.4043 3.70442C15.3492 3.5742 15.1912 3.48446 14.8751 3.30498L13.4378 2.48896C13.1277 2.31284 12.9726 2.22478 12.8334 2.24353C12.6942 2.26228 12.5372 2.41896 12.223 2.73229C11.007 3.94541 8.99499 3.94536 7.77894 2.73221C7.46485 2.41887 7.30781 2.26221 7.1686 2.24345C7.0294 2.2247 6.8743 2.31276 6.5641 2.48887L5.12686 3.30491C4.81077 3.48437 4.65272 3.57411 4.59764 3.70431C4.54256 3.83451 4.60022 4.05657 4.71553 4.50068C5.1348 6.11543 4.11676 7.81471 2.49118 8.25301C2.05626 8.37026 1.8388 8.42893 1.75289 8.54101C1.66699 8.65318 1.66699 8.8336 1.66699 9.19435V10.8058C1.66699 11.1665 1.66699 11.3469 1.75289 11.459C1.83878 11.5712 2.05625 11.6298 2.49118 11.7471C4.11649 12.1854 5.13373 13.8847 4.71426 15.4993C4.5989 15.9434 4.54122 16.1654 4.59629 16.2957C4.65138 16.4259 4.80943 16.5157 5.12553 16.6951L6.56278 17.5112C6.873 17.6873 7.02811 17.7753 7.16733 17.7566C7.30654 17.7378 7.46356 17.5811 7.77758 17.2678C8.99424 16.0537 11.0077 16.0536 12.2244 17.2677C12.5384 17.5811 12.6954 17.7378 12.8347 17.7565C12.9738 17.7753 13.129 17.6872 13.4392 17.5111L14.8764 16.695C15.1926 16.5156 15.3507 16.4258 15.4057 16.2956C15.4607 16.1653 15.4031 15.9433 15.2877 15.4993C14.868 13.8847 15.8844 12.1855 17.5095 11.7471Z" stroke="#99E39E" stroke-width="1.25" stroke-linecap="round"/>
</svg>
